# xmcd
#
# Track frame offsets:
#	150
#	15788
#	31341
#	42730
#	53036
#	64345
#	81351
#	98310
#	114633
#	126214
#	137499
#	148876
#
# Disc length: 2152 seconds
# Revision: 0
# Processed by: cddbd v1.5.2PL0 Copyright (c) Steve Scherf et al.
# Submitted via: dBpowerAMP V12.0
#
DISCID=a008660c
DTITLE=Flatt Lonesome - Too
DYEAR=2014
DGENRE=Country: Bluegrass
TTITLE0=So Far
TTITLE1=Make It Through The Day
TTITLE2=Dangerous Dan
TTITLE3=Never Let Me Go
TTITLE4=Slowly Getting You Out Of the Way
TTITLE5=I Can't Be Bothered
TTITLE6=He Still Hears
TTITLE7=It's Probably Just Her Memory Again
TTITLE8=Letters Have No Arms
TTITLE9=I'm Ready Now
TTITLE10=I Thought You Were Someone I Knew
TTITLE11=How Long
EXTD=
EXTT0=
EXTT1=
EXTT2=
EXTT3=
EXTT4=
EXTT5=
EXTT6=
EXTT7=
EXTT8=
EXTT9=
EXTT10=
EXTT11=
PLAYORDER=
